<mxfile host="app.diagrams.net" modified="2023-07-02T20:07:41.574Z" agent="Mozilla/5.0 (X11; Linux x86_64; rv:109.0) Gecko/20100101 Firefox/115.0" version="21.5.2" etag="N3eQVW2HwK-Qo4L-NysE" type="github">
  <diagram name="Page-1" id="f8ZkHSOC0718Rexa1agl">
    <mxGraphModel>
      <root>
        <mxCell id="0" />
        <mxCell id="1" parent="0" />
      </root>
    </mxGraphModel>
  </diagram>
</mxfile>
